<?xml version="1.0" encoding="utf-8"?>
<!-- Generator: Adobe Illustrator 23.0.1, SVG Export Plug-In . SVG Version: 6.00 Build 0)  -->
<svg version="1.1" id="Ebene_1" xmlns="http://www.w3.org/2000/svg" xmlns:xlink="http://www.w3.org/1999/xlink" x="0px" y="0px"
	 viewBox="0 0 1700.8 283.5" style="enable-background:new 0 0 1700.8 283.5;" xml:space="preserve">
<style type="text/css">
	.st0{fill:#1A1818;}
</style>
<path class="st0" d="M183.9,125.6c-1.9-0.7-1.7-2.6-3.1-4.1c-2.5-2.8-3.4-4.1-9.4-4.1c-5.9,0-8.7,4.7-12.6,5.7
	c-3.9,1-7.8-0.4-17.5,0c-9.7,0.4-21.1,4.9-27.9,8.5c-6.9,3.6-15.7,7.7-20.4,8.5c-4.7,0.8-17.3,0.1-22.1,0.1c-3.5,0-15.1-1.2-15.1,0
	c0,3.4,6.9,3.4,12.9,4c5.9,0.6,20.5,0,20.5,0s-1.1,1.5-6.1,1.5c-5,0-8.8,0.2-8.8,0.2c2.7,2.2,11.7,2.2,16.8,3.7
	c0.5,0.1,1.3,0.3,2.3,0.4c-4.3,4.4-4.3,4.8-11,7.5c-7.7,3-11.3,1.1-11,4.7c0.3,3.6,21.6,0.4,29.9-2.6c5.4-2,5.6-5,9.5-8.4
	c1.6,0.1,3.3,0.1,4.9,0.2c-1.9,1.5-3.6,3.4-3.7,5.3c-0.3,4.4-6.5,5.7-3.5,6.5c1.9,0.5,13.2-7.2,17.5-11.4
	c10.7,0.3,20.7,0.5,24.6,0.4c9.5-0.3,17.6-4.2,19.6-6.5c2-2.3,1.9-5.2,3.1-6.6c1.1-1.4,2.8-0.6,5.9-3.2c2.1-1.8,3.6-2.3,4.6-5.4
	c0.4-1.1,5.2-0.9,5.2-1.9C188.9,127.5,185.9,126.3,183.9,125.6z"/>
<path class="st0" d="M1029.5,125.4c-1.9-0.7-1.7-2.6-3.1-4.1c-2.5-2.8-3.4-4.1-9.4-4.1c-5.9,0-8.7,4.7-12.6,5.7
	c-3.9,1-7.8-0.4-17.5,0c-9.7,0.4-21.1,4.9-27.9,8.5c-6.9,3.6-15.7,7.7-20.4,8.5c-4.7,0.8-17.3,0.1-22.1,0.1c-3.5,0-15.1-1.2-15.1,0
	c0,3.4,6.9,3.4,12.9,4c5.9,0.6,20.5,0,20.5,0s-1.1,1.5-6.1,1.5c-5,0-8.8,0.2-8.8,0.2c2.7,2.2,11.7,2.2,16.8,3.7
	c0.5,0.1,1.3,0.3,2.3,0.4c-4.3,4.4-4.3,4.8-11,7.5c-7.7,3-11.3,1.1-11,4.7c0.3,3.6,21.6,0.4,29.9-2.6c5.4-2,5.6-5,9.5-8.4
	c1.6,0.1,3.3,0.1,4.9,0.2c-1.9,1.5-3.6,3.4-3.7,5.3c-0.3,4.4-6.5,5.7-3.5,6.5c1.9,0.5,13.2-7.2,17.5-11.4
	c10.7,0.3,20.7,0.5,24.6,0.4c9.5-0.3,17.6-4.2,19.6-6.5c2-2.3,1.9-5.2,3.1-6.6c1.1-1.4,2.8-0.6,5.9-3.2c2.1-1.8,3.6-2.3,4.6-5.4
	c0.4-1.1,5.2-0.9,5.2-1.9C1034.5,127.3,1031.5,126.1,1029.5,125.4z"/>
<path class="st0" d="M750.7,173.3c-7.8-9.9-0.3-20.7-12.3-34.4c1.9-2.5,5.2-5.8,6-7.2c0.9-1.5,1.9,0.2,4.5-2.9
	c2.6-3.1,4.2-3.8,4.8-7c0.2-1.1,5-1.5,4.9-2.6c-0.1-0.9-3.3-1.7-5.3-2.2c-2-0.4-1.8-2.6-3.6-3.7c-3.6-2.3-3.6-3.4-10.9-2.7
	c-5.8,0.5-7,5.6-10.7,7.1c-3.7,1.5-7.2-2.6-16.8-0.9c-9.5,1.7-21.1,3.1-29.8,7.8c-6.8,3.7-17,7.4-20.6,10.6
	c-3.6,3.2-16,9.3-20.1,11.9c-2.9,1.8-12.8,8-12.2,8.9c0.9,1.4,14.8-0.6,20.1-3.4c7.4-3.9,9.9-5.8,9.9-5.8s1.4,4.7-1.9,7.8
	c-3.7,3.4-4.4,4-4.4,4c3.4,0.4,14.6-2,18.8-5.3c3.7-2.9,2-5.9,10-6.8c0,2.3,0,4.4,0,5.4c0.1,3.2,7.9,0.5,8.9,3.4c1,2.9-3,2.9-1,5.9
	c1.9,2.9,9.7-3.1,9.7-3.1s-3,4.1-0.8,7.1c2.2,3,10.9-6.3,12.7-5.6c1.8,0.7-7.4,15.1-4.3,15.8c3.1,0.7,6-7.5,7.1-6.6
	s-4.5,14.6-0.6,13.2c3.9-1.3,10.6-15.5,11.7-14.7s-1.1,6.7-0.1,12c0.9,4.5,6,9.4,7.5,10.7c-0.7-0.7-2.1-2.6-2.4-6.3
	c-0.4-5,2.2-6.4,2.2-6.4s6.8,6,7.5,9.6c0.7,3.6,7.4,8,7.4,8s-3.9-6-3.9-8.5s-1-1.8,7.4,4.7c8.4,6.4,10.3,12.4,10.3,12.4
	S758.6,183.3,750.7,173.3z"/>
<path class="st0" d="M489.7,188.7c-8.5-10.7-3.9-22.5-17.4-37.4c-11.4-12.7-15.3-5.2-20.4-10.2c2.2-2.1,5.2-4.4,6.1-5.5
	c1.1-1.4,1.9,0.4,4.8-2.3c3-2.7,4.7-3.2,5.7-6.3c0.4-1.1,5.2-0.9,5.2-1.9c0-0.9-3-2.1-5-2.8c-1.9-0.7-1.4-2.8-3.1-4.1
	c-3.2-2.7-3.2-3.8-10.4-4.1c-5.9-0.2-7.7,4.7-11.6,5.7s-6.8-3.5-16.5-3c-9.7,0.4-20.2,2.1-27.1,5.7c-6.9,3.6-20.2,7.2-25,8
	c-4.7,0.8-16.3-5.7-21.1-5.7c-3.5,0-15.1-0.1-15.1,1.1c0,1.7,6.9,2.3,12.9,2.9c5.9,0.6,11.9,5.4,11.9,5.4s-4.7,2.7-9.1,3.6
	c-4.9,1-5.9,1-5.9,1c2.7,2.2,13.6,1.5,18.7,3c2.2,0.7,17.3-0.5,30.4,0.9c7.9,0.9,11.7,2.6,15.5,4.1c0.2,0.4,0.3,0.9,0.4,1.3
	c0.5,6.7-2.3,16.2-2.3,18c0.2,3.4,12-1.2,13.1,1.9c1.1,3.1-3.2,3.2-1.1,6.3c2.1,3.1,10.4-3.3,10.4-3.3s-6.8,6.2-4.3,9.3
	s11.7-6.8,13.6-6.1c1.9,0.7-2.1,10.7,1.2,11.5c3.3,0.8,6.5-8,7.7-7.1c1.2,0.9-4.8,15.6-0.7,14.2c4.1-1.4,5.5-11.2,6.7-10.3
	c1.2,0.9-1.2,7.2-0.1,12.8c1.1,5.6,13.3,8.1,13.3,8.1s-2.6-1.7-3-7.1c-0.4-5.4,2.4-6.9,2.4-6.9s2.4,10.2,3.1,14
	c0.8,3.8,10.2,6,10.2,6s-6.7-14-6.7-16.7c0-2.7,1.5,5.7,10.5,12.6c9,6.9,20.1,3,20.1,3S498.2,199.5,489.7,188.7z"/>
<path class="st0" d="M1320.7,130.9c-1.9-0.8-1.4-2.8-3-4.2c-3.2-2.8-3.1-3.9-10.3-4.4c-5.3-0.3-7.4,3.6-10.6,5
	c-5.9-8.2-9.7-10.6-6.6-13.5c3.6-3.4,12.5-6.5,9.6-11c-3-4.5-30.6-3.9-45.1,5.2c-14.6,9.1-27.1,18.2-27.2,20.2
	c-0.1,1.4,4.9,1.6,10.3,2.4c-4.6,1.3-8.9,2.6-11.2,4c-4,2.6-17.3,6.7-21.7,8.6c-3.2,1.4-13.9,5.9-13.5,6.9
	c0.7,1.6,14.7,1.7,20.4-0.2c7.9-2.7,10.7-4.2,10.7-4.2s0.6,4.9-3.1,7.4c-4.1,2.8-5,3.3-5,3.3c3.3,1,13.2-2.8,17.8-5.4
	c4.8-2.7,4.7-3.6,17.8-5.2c5.7-0.7,7.7,4.5,13.9,7.7c0,0,0,0,0,0c-2.5,6.4-0.1,8.6,0,10.1c0.1,1.5,6.1-4.1,8.6-3.3
	c2.5,0.8-1.5,8.7,0.3,9.4c1.8,0.6,5.5-9.7,5.5-9.7s-0.7,13.3,2.2,15.5c3,2.2,5.2,5.3,5.2,5.3l0.7-14.2c0,0,2,8.6,7.3,11.1
	c5.3,2.5,9.7,3.1,9.7,3.1s0.8-7.8-2.2-14.8c-1.5-3.4-2.8-10.3-3.8-16.6c2.3-1.9,5.8-3.7,6.8-4.9c1.2-1.3,7.3-0.1,10.3-2.7
	s4.7-3.1,5.8-6.2c0.4-1.1,5.2-0.7,5.2-1.8C1325.6,133,1322.7,131.7,1320.7,130.9z"/>
<path class="st0" d="M1611.1,132c-2-0.5-1.7-2.6-3.4-3.8c-3.5-2.4-3.5-3.5-10.8-3.1c-5.9,0.3-7.2,5.3-11,6.7
	c-3.5,1.2-6.6-2.2-14.4-1.7c-14.5-12.8-16.8-30-15.9-35.2c1.1-5.9,14.2-33.4-4.9-37.5c-19.2-4.2-35,4.9-47.3,5.9
	c-12.3,1-14.8,1.5-14.8,1.5s10.8,6.7,20.2,5.9c9.5-0.7,16.8-1,16.8-1s-19.3,4-18.8,5.9c0.5,2,16.7-0.8,16.8,2.6
	c0.1,3.5-9.4,0.5-7.4,4.4c2,3.9,11.9,4.6,14.6,6.3c2.7,1.7-13.1,4.2-13.1,4.2s1.2,5.4,5.9,5.9c4.6,0.5,9.6,0.2,9.6,0.2
	s-4.4,5.6-13.5,5.6c-9.1,0,10.5,4.2,10.5,4.2s-9.7,4.9-6.8,6.1c2.9,1.2,8.3,0.3,8.3,0.3s-5.9,6.5-10.8,8c-4.9,1.5-1.1,4.9,7.7,5.5
	c8.8,0.6,8.1,0.5,3.4,5.9c-2.1,2.4-4.2,5.3-5.9,7.6c-3.4,1.4-6.4,2.9-8,4.2c-3.7,3-16.4,8.7-20.5,11.1c-3,1.7-13.1,7.5-12.6,8.5
	c0.8,1.5,14.8,0,20.2-2.6c7.5-3.6,10.2-5.4,10.2-5.4s1.2,4.8-2.2,7.7c-3.8,3.3-4.6,3.8-4.6,3.8c3.4,0.6,8.5-1.2,12.8-4.3
	c4.4-3.2-0.9-3.4,11.9-6.6c8.3-2,16.9,4.3,34.7,1.4c9.3-1.6,19.5-3.7,21.4-6.1c1.8-2.4,6-5.2,7-6.6c1-1.5,7.2-0.9,9.9-3.9
	c2.7-3,4.4-3.6,5.1-6.8c0.3-1.1,5.1-1.3,5-2.4C1616.3,133.4,1613.2,132.5,1611.1,132z"/>
</svg>
